<mxfile host="app.diagrams.net" modified="2023-11-24T23:13:33.491Z" agent="Mozilla/5.0 (Windows NT 10.0; Win64; x64) AppleWebKit/537.36 (KHTML, like Gecko) Chrome/119.0.0.0 Safari/537.36 Edg/119.0.0.0" etag="V4k1a27k-YWWVXxl767k" version="22.1.4" type="device">
  <diagram id="R2lEEEUBdFMjLlhIrx00" name="Page-1">
    <mxGraphModel dx="2201" dy="827" grid="1" gridSize="10" guides="1" tooltips="1" connect="1" arrows="1" fold="1" page="1" pageScale="1" pageWidth="850" pageHeight="1100" math="0" shadow="0" extFonts="Permanent Marker^https://fonts.googleapis.com/css?family=Permanent+Marker">
      <root>
        <mxCell id="0" />
        <mxCell id="1" parent="0" />
        <mxCell id="nkca7lePZG1rZRtynT3X-35" style="edgeStyle=orthogonalEdgeStyle;rounded=0;orthogonalLoop=1;jettySize=auto;html=1;exitX=0.5;exitY=0;exitDx=0;exitDy=0;entryX=0.5;entryY=1;entryDx=0;entryDy=0;" parent="1" source="nkca7lePZG1rZRtynT3X-1" target="nkca7lePZG1rZRtynT3X-28" edge="1">
          <mxGeometry relative="1" as="geometry" />
        </mxCell>
        <mxCell id="nkca7lePZG1rZRtynT3X-46" style="edgeStyle=orthogonalEdgeStyle;rounded=0;orthogonalLoop=1;jettySize=auto;html=1;exitX=0;exitY=0.5;exitDx=0;exitDy=0;entryX=1;entryY=0.5;entryDx=0;entryDy=0;" parent="1" source="nkca7lePZG1rZRtynT3X-1" target="nkca7lePZG1rZRtynT3X-41" edge="1">
          <mxGeometry relative="1" as="geometry">
            <Array as="points">
              <mxPoint x="380" y="620" />
              <mxPoint x="324" y="620" />
              <mxPoint x="324" y="590" />
            </Array>
          </mxGeometry>
        </mxCell>
        <mxCell id="nkca7lePZG1rZRtynT3X-53" style="edgeStyle=orthogonalEdgeStyle;rounded=0;orthogonalLoop=1;jettySize=auto;html=1;exitX=0.5;exitY=1;exitDx=0;exitDy=0;entryX=0.5;entryY=0;entryDx=0;entryDy=0;" parent="1" source="nkca7lePZG1rZRtynT3X-1" target="nkca7lePZG1rZRtynT3X-52" edge="1">
          <mxGeometry relative="1" as="geometry" />
        </mxCell>
        <mxCell id="nkca7lePZG1rZRtynT3X-60" style="edgeStyle=orthogonalEdgeStyle;rounded=0;orthogonalLoop=1;jettySize=auto;html=1;exitX=0;exitY=1;exitDx=0;exitDy=0;entryX=1;entryY=0.5;entryDx=0;entryDy=0;" parent="1" source="nkca7lePZG1rZRtynT3X-1" target="nkca7lePZG1rZRtynT3X-59" edge="1">
          <mxGeometry relative="1" as="geometry" />
        </mxCell>
        <mxCell id="nkca7lePZG1rZRtynT3X-72" style="edgeStyle=orthogonalEdgeStyle;rounded=0;orthogonalLoop=1;jettySize=auto;html=1;exitX=1;exitY=0.25;exitDx=0;exitDy=0;entryX=0.5;entryY=1;entryDx=0;entryDy=0;" parent="1" source="nkca7lePZG1rZRtynT3X-1" target="nkca7lePZG1rZRtynT3X-69" edge="1">
          <mxGeometry relative="1" as="geometry">
            <Array as="points">
              <mxPoint x="490" y="620" />
              <mxPoint x="590" y="620" />
            </Array>
          </mxGeometry>
        </mxCell>
        <mxCell id="nkca7lePZG1rZRtynT3X-75" style="edgeStyle=orthogonalEdgeStyle;rounded=0;orthogonalLoop=1;jettySize=auto;html=1;exitX=1;exitY=0.5;exitDx=0;exitDy=0;entryX=0.5;entryY=1;entryDx=0;entryDy=0;" parent="1" source="nkca7lePZG1rZRtynT3X-1" target="nkca7lePZG1rZRtynT3X-73" edge="1">
          <mxGeometry relative="1" as="geometry">
            <Array as="points">
              <mxPoint x="490" y="640" />
              <mxPoint x="710" y="640" />
            </Array>
          </mxGeometry>
        </mxCell>
        <mxCell id="nkca7lePZG1rZRtynT3X-82" style="edgeStyle=orthogonalEdgeStyle;rounded=0;orthogonalLoop=1;jettySize=auto;html=1;exitX=1;exitY=0.75;exitDx=0;exitDy=0;entryX=0;entryY=0.5;entryDx=0;entryDy=0;" parent="1" source="nkca7lePZG1rZRtynT3X-1" target="nkca7lePZG1rZRtynT3X-80" edge="1">
          <mxGeometry relative="1" as="geometry">
            <Array as="points">
              <mxPoint x="490" y="650" />
              <mxPoint x="605" y="650" />
              <mxPoint x="605" y="672" />
            </Array>
          </mxGeometry>
        </mxCell>
        <mxCell id="qWagboNVL4_WTNi-8dgY-55" style="edgeStyle=orthogonalEdgeStyle;rounded=0;orthogonalLoop=1;jettySize=auto;html=1;exitX=1;exitY=1;exitDx=0;exitDy=0;entryX=0;entryY=0.5;entryDx=0;entryDy=0;" parent="1" source="nkca7lePZG1rZRtynT3X-1" target="px97jL8eb0-ScUhYZCoK-27" edge="1">
          <mxGeometry relative="1" as="geometry">
            <mxPoint x="570" y="740" as="targetPoint" />
            <Array as="points">
              <mxPoint x="490" y="670" />
              <mxPoint x="570" y="670" />
              <mxPoint x="570" y="730" />
            </Array>
          </mxGeometry>
        </mxCell>
        <mxCell id="qWagboNVL4_WTNi-8dgY-58" style="edgeStyle=orthogonalEdgeStyle;rounded=0;orthogonalLoop=1;jettySize=auto;html=1;exitX=1;exitY=1;exitDx=0;exitDy=0;" parent="1" source="nkca7lePZG1rZRtynT3X-1" edge="1">
          <mxGeometry relative="1" as="geometry">
            <mxPoint x="530" y="960" as="targetPoint" />
            <Array as="points">
              <mxPoint x="540" y="680" />
            </Array>
          </mxGeometry>
        </mxCell>
        <mxCell id="qWagboNVL4_WTNi-8dgY-82" style="edgeStyle=orthogonalEdgeStyle;rounded=0;orthogonalLoop=1;jettySize=auto;html=1;exitX=0;exitY=0.5;exitDx=0;exitDy=0;entryX=1;entryY=0.5;entryDx=0;entryDy=0;" parent="1" source="nkca7lePZG1rZRtynT3X-1" target="nkca7lePZG1rZRtynT3X-61" edge="1">
          <mxGeometry relative="1" as="geometry" />
        </mxCell>
        <mxCell id="nkca7lePZG1rZRtynT3X-1" value="INCIDENTES" style="rounded=0;whiteSpace=wrap;html=1;" parent="1" vertex="1">
          <mxGeometry x="380" y="620" width="110" height="60" as="geometry" />
        </mxCell>
        <mxCell id="qWagboNVL4_WTNi-8dgY-50" style="edgeStyle=orthogonalEdgeStyle;rounded=0;orthogonalLoop=1;jettySize=auto;html=1;exitX=0.75;exitY=1;exitDx=0;exitDy=0;entryX=0.5;entryY=0;entryDx=0;entryDy=0;" parent="1" source="nkca7lePZG1rZRtynT3X-4" target="px97jL8eb0-ScUhYZCoK-20" edge="1">
          <mxGeometry relative="1" as="geometry" />
        </mxCell>
        <mxCell id="qWagboNVL4_WTNi-8dgY-52" style="edgeStyle=orthogonalEdgeStyle;rounded=0;orthogonalLoop=1;jettySize=auto;html=1;exitX=0;exitY=0.5;exitDx=0;exitDy=0;entryX=1;entryY=0.5;entryDx=0;entryDy=0;" parent="1" source="nkca7lePZG1rZRtynT3X-4" target="px97jL8eb0-ScUhYZCoK-27" edge="1">
          <mxGeometry relative="1" as="geometry" />
        </mxCell>
        <mxCell id="nkca7lePZG1rZRtynT3X-4" value="HELP_DESK" style="rounded=0;whiteSpace=wrap;html=1;" parent="1" vertex="1">
          <mxGeometry x="710" y="700" width="120" height="60" as="geometry" />
        </mxCell>
        <mxCell id="nkca7lePZG1rZRtynT3X-79" style="edgeStyle=orthogonalEdgeStyle;rounded=0;orthogonalLoop=1;jettySize=auto;html=1;exitX=0;exitY=0.75;exitDx=0;exitDy=0;" parent="1" source="nkca7lePZG1rZRtynT3X-5" target="nkca7lePZG1rZRtynT3X-76" edge="1">
          <mxGeometry relative="1" as="geometry" />
        </mxCell>
        <mxCell id="px97jL8eb0-ScUhYZCoK-46" style="edgeStyle=none;curved=1;rounded=0;orthogonalLoop=1;jettySize=auto;html=1;exitX=0.5;exitY=1;exitDx=0;exitDy=0;fontSize=12;startSize=8;endSize=8;" parent="1" source="nkca7lePZG1rZRtynT3X-5" edge="1">
          <mxGeometry relative="1" as="geometry">
            <mxPoint x="440" y="870" as="targetPoint" />
          </mxGeometry>
        </mxCell>
        <mxCell id="qWagboNVL4_WTNi-8dgY-43" style="edgeStyle=orthogonalEdgeStyle;rounded=0;orthogonalLoop=1;jettySize=auto;html=1;exitX=0;exitY=0.5;exitDx=0;exitDy=0;entryX=0.5;entryY=0;entryDx=0;entryDy=0;" parent="1" source="nkca7lePZG1rZRtynT3X-5" target="nkca7lePZG1rZRtynT3X-77" edge="1">
          <mxGeometry relative="1" as="geometry" />
        </mxCell>
        <mxCell id="qWagboNVL4_WTNi-8dgY-44" style="edgeStyle=orthogonalEdgeStyle;rounded=0;orthogonalLoop=1;jettySize=auto;html=1;exitX=0;exitY=0;exitDx=0;exitDy=0;entryX=1;entryY=0.5;entryDx=0;entryDy=0;" parent="1" source="nkca7lePZG1rZRtynT3X-5" target="qWagboNVL4_WTNi-8dgY-41" edge="1">
          <mxGeometry relative="1" as="geometry">
            <mxPoint x="160" y="840" as="targetPoint" />
            <Array as="points">
              <mxPoint x="380" y="780" />
              <mxPoint x="190" y="780" />
              <mxPoint x="190" y="830" />
            </Array>
          </mxGeometry>
        </mxCell>
        <mxCell id="nkca7lePZG1rZRtynT3X-5" value="TECNICO" style="rounded=0;whiteSpace=wrap;html=1;" parent="1" vertex="1">
          <mxGeometry x="380" y="770" width="120" height="60" as="geometry" />
        </mxCell>
        <mxCell id="nkca7lePZG1rZRtynT3X-21" style="edgeStyle=orthogonalEdgeStyle;rounded=0;orthogonalLoop=1;jettySize=auto;html=1;exitX=1;exitY=0.5;exitDx=0;exitDy=0;entryX=0;entryY=0.5;entryDx=0;entryDy=0;" parent="1" source="nkca7lePZG1rZRtynT3X-7" target="nkca7lePZG1rZRtynT3X-20" edge="1">
          <mxGeometry relative="1" as="geometry" />
        </mxCell>
        <mxCell id="px97jL8eb0-ScUhYZCoK-1" style="edgeStyle=orthogonalEdgeStyle;rounded=0;orthogonalLoop=1;jettySize=auto;html=1;exitX=0;exitY=0.5;exitDx=0;exitDy=0;entryX=0.5;entryY=1;entryDx=0;entryDy=0;" parent="1" source="nkca7lePZG1rZRtynT3X-7" target="nkca7lePZG1rZRtynT3X-15" edge="1">
          <mxGeometry relative="1" as="geometry" />
        </mxCell>
        <mxCell id="px97jL8eb0-ScUhYZCoK-2" style="edgeStyle=orthogonalEdgeStyle;rounded=0;orthogonalLoop=1;jettySize=auto;html=1;exitX=0.5;exitY=0;exitDx=0;exitDy=0;entryX=0.5;entryY=1;entryDx=0;entryDy=0;" parent="1" source="nkca7lePZG1rZRtynT3X-7" target="nkca7lePZG1rZRtynT3X-14" edge="1">
          <mxGeometry relative="1" as="geometry" />
        </mxCell>
        <mxCell id="nkca7lePZG1rZRtynT3X-7" value="CLIENTES" style="rounded=0;whiteSpace=wrap;html=1;" parent="1" vertex="1">
          <mxGeometry x="100" y="405" width="120" height="60" as="geometry" />
        </mxCell>
        <mxCell id="nkca7lePZG1rZRtynT3X-14" value="CUIT" style="ellipse;whiteSpace=wrap;html=1;align=center;fontStyle=4;" parent="1" vertex="1">
          <mxGeometry x="110" y="320" width="100" height="40" as="geometry" />
        </mxCell>
        <mxCell id="nkca7lePZG1rZRtynT3X-15" value="RazonSocial" style="ellipse;whiteSpace=wrap;html=1;align=center;" parent="1" vertex="1">
          <mxGeometry y="320" width="100" height="40" as="geometry" />
        </mxCell>
        <mxCell id="qWagboNVL4_WTNi-8dgY-78" style="edgeStyle=orthogonalEdgeStyle;rounded=0;orthogonalLoop=1;jettySize=auto;html=1;exitX=1;exitY=0;exitDx=0;exitDy=0;entryX=0.5;entryY=1;entryDx=0;entryDy=0;" parent="1" source="nkca7lePZG1rZRtynT3X-18" target="qWagboNVL4_WTNi-8dgY-72" edge="1">
          <mxGeometry relative="1" as="geometry">
            <mxPoint x="620" y="415" as="targetPoint" />
            <Array as="points">
              <mxPoint x="555" y="415" />
              <mxPoint x="555" y="416" />
              <mxPoint x="600" y="416" />
            </Array>
          </mxGeometry>
        </mxCell>
        <mxCell id="qWagboNVL4_WTNi-8dgY-79" style="edgeStyle=orthogonalEdgeStyle;rounded=0;orthogonalLoop=1;jettySize=auto;html=1;exitX=0.75;exitY=0;exitDx=0;exitDy=0;" parent="1" source="nkca7lePZG1rZRtynT3X-18" target="qWagboNVL4_WTNi-8dgY-83" edge="1">
          <mxGeometry relative="1" as="geometry">
            <mxPoint x="480" y="370" as="targetPoint" />
            <Array as="points">
              <mxPoint x="465" y="393" />
              <mxPoint x="481" y="393" />
            </Array>
          </mxGeometry>
        </mxCell>
        <mxCell id="nkca7lePZG1rZRtynT3X-18" value="SERVICIOS" style="whiteSpace=wrap;html=1;align=center;" parent="1" vertex="1">
          <mxGeometry x="390" y="415" width="100" height="60" as="geometry" />
        </mxCell>
        <mxCell id="nkca7lePZG1rZRtynT3X-105" style="edgeStyle=orthogonalEdgeStyle;rounded=0;orthogonalLoop=1;jettySize=auto;html=1;exitX=1;exitY=0.5;exitDx=0;exitDy=0;entryX=0;entryY=0.25;entryDx=0;entryDy=0;" parent="1" source="nkca7lePZG1rZRtynT3X-20" target="nkca7lePZG1rZRtynT3X-18" edge="1">
          <mxGeometry relative="1" as="geometry" />
        </mxCell>
        <mxCell id="nkca7lePZG1rZRtynT3X-20" value="contratado" style="shape=rhombus;perimeter=rhombusPerimeter;whiteSpace=wrap;html=1;align=center;" parent="1" vertex="1">
          <mxGeometry x="267.5" y="405" width="90" height="60" as="geometry" />
        </mxCell>
        <mxCell id="nkca7lePZG1rZRtynT3X-24" value="1:N" style="text;html=1;align=center;verticalAlign=middle;resizable=0;points=[];autosize=1;strokeColor=none;fillColor=none;" parent="1" vertex="1">
          <mxGeometry x="220" y="410" width="40" height="30" as="geometry" />
        </mxCell>
        <mxCell id="nkca7lePZG1rZRtynT3X-26" value="1:M" style="text;html=1;align=center;verticalAlign=middle;resizable=0;points=[];autosize=1;strokeColor=none;fillColor=none;" parent="1" vertex="1">
          <mxGeometry x="350" y="410" width="40" height="30" as="geometry" />
        </mxCell>
        <mxCell id="nkca7lePZG1rZRtynT3X-27" value="N:M" style="text;html=1;align=center;verticalAlign=middle;resizable=0;points=[];autosize=1;strokeColor=none;fillColor=none;" parent="1" vertex="1">
          <mxGeometry x="287.5" y="380" width="50" height="30" as="geometry" />
        </mxCell>
        <mxCell id="nkca7lePZG1rZRtynT3X-34" style="edgeStyle=orthogonalEdgeStyle;rounded=0;orthogonalLoop=1;jettySize=auto;html=1;exitX=0.5;exitY=0;exitDx=0;exitDy=0;entryX=0.5;entryY=1;entryDx=0;entryDy=0;" parent="1" source="nkca7lePZG1rZRtynT3X-28" target="nkca7lePZG1rZRtynT3X-18" edge="1">
          <mxGeometry relative="1" as="geometry" />
        </mxCell>
        <mxCell id="nkca7lePZG1rZRtynT3X-28" value="es de" style="shape=rhombus;perimeter=rhombusPerimeter;whiteSpace=wrap;html=1;align=center;" parent="1" vertex="1">
          <mxGeometry x="390" y="510" width="100" height="60" as="geometry" />
        </mxCell>
        <mxCell id="nkca7lePZG1rZRtynT3X-36" value="1:1" style="text;html=1;align=center;verticalAlign=middle;resizable=0;points=[];autosize=1;strokeColor=none;fillColor=none;" parent="1" vertex="1">
          <mxGeometry x="440" y="480" width="40" height="30" as="geometry" />
        </mxCell>
        <mxCell id="nkca7lePZG1rZRtynT3X-37" value="1:N" style="text;html=1;align=center;verticalAlign=middle;resizable=0;points=[];autosize=1;strokeColor=none;fillColor=none;" parent="1" vertex="1">
          <mxGeometry x="440" y="598" width="40" height="30" as="geometry" />
        </mxCell>
        <mxCell id="nkca7lePZG1rZRtynT3X-38" value="1:N" style="text;html=1;align=center;verticalAlign=middle;resizable=0;points=[];autosize=1;strokeColor=none;fillColor=none;" parent="1" vertex="1">
          <mxGeometry x="485" y="525" width="40" height="30" as="geometry" />
        </mxCell>
        <mxCell id="nkca7lePZG1rZRtynT3X-41" value="IdIncidentes" style="ellipse;whiteSpace=wrap;html=1;align=center;fontStyle=4;" parent="1" vertex="1">
          <mxGeometry x="167.5" y="570" width="100" height="40" as="geometry" />
        </mxCell>
        <mxCell id="nkca7lePZG1rZRtynT3X-55" style="edgeStyle=orthogonalEdgeStyle;rounded=0;orthogonalLoop=1;jettySize=auto;html=1;exitX=0.5;exitY=1;exitDx=0;exitDy=0;entryX=0.5;entryY=0;entryDx=0;entryDy=0;" parent="1" source="nkca7lePZG1rZRtynT3X-52" target="nkca7lePZG1rZRtynT3X-5" edge="1">
          <mxGeometry relative="1" as="geometry" />
        </mxCell>
        <mxCell id="nkca7lePZG1rZRtynT3X-52" value="a" style="shape=rhombus;perimeter=rhombusPerimeter;whiteSpace=wrap;html=1;align=center;" parent="1" vertex="1">
          <mxGeometry x="395" y="700" width="90" height="50" as="geometry" />
        </mxCell>
        <mxCell id="nkca7lePZG1rZRtynT3X-56" value="1:1" style="text;html=1;align=center;verticalAlign=middle;resizable=0;points=[];autosize=1;strokeColor=none;fillColor=none;" parent="1" vertex="1">
          <mxGeometry x="405" y="748" width="40" height="30" as="geometry" />
        </mxCell>
        <mxCell id="nkca7lePZG1rZRtynT3X-57" value="1:N" style="text;html=1;align=center;verticalAlign=middle;resizable=0;points=[];autosize=1;strokeColor=none;fillColor=none;" parent="1" vertex="1">
          <mxGeometry x="405" y="680" width="40" height="30" as="geometry" />
        </mxCell>
        <mxCell id="nkca7lePZG1rZRtynT3X-58" value="1:N" style="text;html=1;align=center;verticalAlign=middle;resizable=0;points=[];autosize=1;strokeColor=none;fillColor=none;" parent="1" vertex="1">
          <mxGeometry x="357.5" y="710" width="40" height="30" as="geometry" />
        </mxCell>
        <mxCell id="nkca7lePZG1rZRtynT3X-59" value="fechaEstResolucion" style="ellipse;whiteSpace=wrap;html=1;align=center;" parent="1" vertex="1">
          <mxGeometry x="100" y="680" width="140" height="40" as="geometry" />
        </mxCell>
        <mxCell id="nkca7lePZG1rZRtynT3X-61" value="estado" style="ellipse;whiteSpace=wrap;html=1;align=center;" parent="1" vertex="1">
          <mxGeometry x="200" y="630" width="100" height="40" as="geometry" />
        </mxCell>
        <mxCell id="nkca7lePZG1rZRtynT3X-69" value="notaCierre" style="ellipse;whiteSpace=wrap;html=1;align=center;" parent="1" vertex="1">
          <mxGeometry x="540" y="570" width="100" height="40" as="geometry" />
        </mxCell>
        <mxCell id="nkca7lePZG1rZRtynT3X-73" value="fechApertura" style="ellipse;whiteSpace=wrap;html=1;align=center;" parent="1" vertex="1">
          <mxGeometry x="660" y="590" width="100" height="40" as="geometry" />
        </mxCell>
        <mxCell id="nkca7lePZG1rZRtynT3X-76" value="nombreTecnico" style="ellipse;whiteSpace=wrap;html=1;align=center;" parent="1" vertex="1">
          <mxGeometry x="280" y="868" width="100" height="40" as="geometry" />
        </mxCell>
        <mxCell id="nkca7lePZG1rZRtynT3X-77" value="IdTecnico" style="ellipse;whiteSpace=wrap;html=1;align=center;fontStyle=4;" parent="1" vertex="1">
          <mxGeometry x="213.75" y="820" width="100" height="40" as="geometry" />
        </mxCell>
        <mxCell id="nkca7lePZG1rZRtynT3X-80" value="esComplejo" style="ellipse;whiteSpace=wrap;html=1;align=center;" parent="1" vertex="1">
          <mxGeometry x="720" y="653" width="100" height="37" as="geometry" />
        </mxCell>
        <mxCell id="px97jL8eb0-ScUhYZCoK-9" style="edgeStyle=none;curved=1;rounded=0;orthogonalLoop=1;jettySize=auto;html=1;exitX=1;exitY=0.5;exitDx=0;exitDy=0;fontSize=12;startSize=8;endSize=8;" parent="1" edge="1">
          <mxGeometry relative="1" as="geometry">
            <mxPoint x="70" y="820" as="sourcePoint" />
            <mxPoint x="70" y="820" as="targetPoint" />
          </mxGeometry>
        </mxCell>
        <mxCell id="px97jL8eb0-ScUhYZCoK-20" value="nombre" style="ellipse;whiteSpace=wrap;html=1;align=center;" parent="1" vertex="1">
          <mxGeometry x="750" y="840" width="100" height="40" as="geometry" />
        </mxCell>
        <mxCell id="px97jL8eb0-ScUhYZCoK-27" value="Creado" style="shape=rhombus;perimeter=rhombusPerimeter;whiteSpace=wrap;html=1;align=center;" parent="1" vertex="1">
          <mxGeometry x="600" y="700" width="75" height="60" as="geometry" />
        </mxCell>
        <mxCell id="px97jL8eb0-ScUhYZCoK-45" value="notificacion" style="ellipse;whiteSpace=wrap;html=1;align=center;" parent="1" vertex="1">
          <mxGeometry x="390" y="873" width="100" height="40" as="geometry" />
        </mxCell>
        <mxCell id="qWagboNVL4_WTNi-8dgY-3" value="descProblema" style="ellipse;whiteSpace=wrap;html=1;align=center;" parent="1" vertex="1">
          <mxGeometry x="130" y="1020" width="100" height="40" as="geometry" />
        </mxCell>
        <mxCell id="qWagboNVL4_WTNi-8dgY-37" style="edgeStyle=orthogonalEdgeStyle;rounded=0;orthogonalLoop=1;jettySize=auto;html=1;exitX=0;exitY=0.5;exitDx=0;exitDy=0;entryX=1;entryY=0.5;entryDx=0;entryDy=0;" parent="1" source="qWagboNVL4_WTNi-8dgY-14" target="qWagboNVL4_WTNi-8dgY-15" edge="1">
          <mxGeometry relative="1" as="geometry" />
        </mxCell>
        <mxCell id="qWagboNVL4_WTNi-8dgY-42" style="edgeStyle=orthogonalEdgeStyle;rounded=0;orthogonalLoop=1;jettySize=auto;html=1;exitX=0.25;exitY=1;exitDx=0;exitDy=0;entryX=1;entryY=0.5;entryDx=0;entryDy=0;" parent="1" source="qWagboNVL4_WTNi-8dgY-14" target="qWagboNVL4_WTNi-8dgY-3" edge="1">
          <mxGeometry relative="1" as="geometry" />
        </mxCell>
        <mxCell id="qWagboNVL4_WTNi-8dgY-88" style="edgeStyle=orthogonalEdgeStyle;rounded=0;orthogonalLoop=1;jettySize=auto;html=1;exitX=0.5;exitY=1;exitDx=0;exitDy=0;entryX=0.5;entryY=0;entryDx=0;entryDy=0;" parent="1" source="qWagboNVL4_WTNi-8dgY-14" target="qWagboNVL4_WTNi-8dgY-86" edge="1">
          <mxGeometry relative="1" as="geometry" />
        </mxCell>
        <mxCell id="qWagboNVL4_WTNi-8dgY-89" style="edgeStyle=orthogonalEdgeStyle;rounded=0;orthogonalLoop=1;jettySize=auto;html=1;exitX=0.75;exitY=1;exitDx=0;exitDy=0;entryX=0;entryY=0.5;entryDx=0;entryDy=0;" parent="1" source="qWagboNVL4_WTNi-8dgY-14" target="qWagboNVL4_WTNi-8dgY-85" edge="1">
          <mxGeometry relative="1" as="geometry" />
        </mxCell>
        <mxCell id="qWagboNVL4_WTNi-8dgY-91" style="edgeStyle=orthogonalEdgeStyle;rounded=0;orthogonalLoop=1;jettySize=auto;html=1;exitX=0;exitY=1;exitDx=0;exitDy=0;entryX=1;entryY=0.5;entryDx=0;entryDy=0;" parent="1" source="qWagboNVL4_WTNi-8dgY-14" target="qWagboNVL4_WTNi-8dgY-90" edge="1">
          <mxGeometry relative="1" as="geometry">
            <Array as="points">
              <mxPoint x="223" y="1000" />
              <mxPoint x="130" y="1000" />
            </Array>
          </mxGeometry>
        </mxCell>
        <mxCell id="qWagboNVL4_WTNi-8dgY-14" value="TIPO DE PROBLEMA" style="rounded=0;whiteSpace=wrap;html=1;" parent="1" vertex="1">
          <mxGeometry x="222.5" y="930" width="120" height="60" as="geometry" />
        </mxCell>
        <mxCell id="qWagboNVL4_WTNi-8dgY-31" style="edgeStyle=orthogonalEdgeStyle;rounded=0;orthogonalLoop=1;jettySize=auto;html=1;exitX=0;exitY=0.5;exitDx=0;exitDy=0;entryX=0.991;entryY=0.4;entryDx=0;entryDy=0;entryPerimeter=0;" parent="1" source="qWagboNVL4_WTNi-8dgY-15" target="qWagboNVL4_WTNi-8dgY-24" edge="1">
          <mxGeometry relative="1" as="geometry" />
        </mxCell>
        <mxCell id="qWagboNVL4_WTNi-8dgY-15" value="tiene" style="shape=rhombus;perimeter=rhombusPerimeter;whiteSpace=wrap;html=1;align=center;" parent="1" vertex="1">
          <mxGeometry x="-70" y="880" width="140" height="60" as="geometry" />
        </mxCell>
        <mxCell id="qWagboNVL4_WTNi-8dgY-35" style="edgeStyle=orthogonalEdgeStyle;rounded=0;orthogonalLoop=1;jettySize=auto;html=1;exitX=0.25;exitY=1;exitDx=0;exitDy=0;entryX=1;entryY=0.5;entryDx=0;entryDy=0;" parent="1" source="qWagboNVL4_WTNi-8dgY-24" target="qWagboNVL4_WTNi-8dgY-27" edge="1">
          <mxGeometry relative="1" as="geometry" />
        </mxCell>
        <mxCell id="qWagboNVL4_WTNi-8dgY-36" style="edgeStyle=orthogonalEdgeStyle;rounded=0;orthogonalLoop=1;jettySize=auto;html=1;exitX=0.25;exitY=0;exitDx=0;exitDy=0;entryX=1;entryY=0.5;entryDx=0;entryDy=0;" parent="1" source="qWagboNVL4_WTNi-8dgY-24" target="qWagboNVL4_WTNi-8dgY-26" edge="1">
          <mxGeometry relative="1" as="geometry" />
        </mxCell>
        <mxCell id="qWagboNVL4_WTNi-8dgY-24" value="ESPECIALIDAD" style="rounded=0;whiteSpace=wrap;html=1;" parent="1" vertex="1">
          <mxGeometry x="-260" y="880" width="120" height="60" as="geometry" />
        </mxCell>
        <mxCell id="qWagboNVL4_WTNi-8dgY-26" value="IdEspecialidad" style="ellipse;whiteSpace=wrap;html=1;align=center;fontStyle=4;" parent="1" vertex="1">
          <mxGeometry x="-380" y="840" width="100" height="40" as="geometry" />
        </mxCell>
        <mxCell id="qWagboNVL4_WTNi-8dgY-27" value="nombre" style="ellipse;whiteSpace=wrap;html=1;align=center;" parent="1" vertex="1">
          <mxGeometry x="-380" y="980" width="100" height="40" as="geometry" />
        </mxCell>
        <mxCell id="qWagboNVL4_WTNi-8dgY-38" value="1:N" style="text;html=1;align=center;verticalAlign=middle;resizable=0;points=[];autosize=1;strokeColor=none;fillColor=none;" parent="1" vertex="1">
          <mxGeometry x="-140" y="878" width="40" height="30" as="geometry" />
        </mxCell>
        <mxCell id="qWagboNVL4_WTNi-8dgY-39" value="1:1" style="text;html=1;align=center;verticalAlign=middle;resizable=0;points=[];autosize=1;strokeColor=none;fillColor=none;" parent="1" vertex="1">
          <mxGeometry x="182.5" y="930" width="40" height="30" as="geometry" />
        </mxCell>
        <mxCell id="qWagboNVL4_WTNi-8dgY-40" value="1:N" style="text;html=1;align=center;verticalAlign=middle;resizable=0;points=[];autosize=1;strokeColor=none;fillColor=none;" parent="1" vertex="1">
          <mxGeometry x="-20" y="858" width="40" height="30" as="geometry" />
        </mxCell>
        <mxCell id="qWagboNVL4_WTNi-8dgY-45" style="edgeStyle=orthogonalEdgeStyle;rounded=0;orthogonalLoop=1;jettySize=auto;html=1;exitX=0;exitY=0.5;exitDx=0;exitDy=0;entryX=0.75;entryY=0;entryDx=0;entryDy=0;" parent="1" source="qWagboNVL4_WTNi-8dgY-41" target="qWagboNVL4_WTNi-8dgY-24" edge="1">
          <mxGeometry relative="1" as="geometry" />
        </mxCell>
        <mxCell id="qWagboNVL4_WTNi-8dgY-41" value="posee" style="shape=rhombus;perimeter=rhombusPerimeter;whiteSpace=wrap;html=1;align=center;" parent="1" vertex="1">
          <mxGeometry x="20" y="800" width="120" height="60" as="geometry" />
        </mxCell>
        <mxCell id="qWagboNVL4_WTNi-8dgY-46" value="N:M" style="text;html=1;align=center;verticalAlign=middle;resizable=0;points=[];autosize=1;strokeColor=none;fillColor=none;" parent="1" vertex="1">
          <mxGeometry x="55" y="778" width="50" height="30" as="geometry" />
        </mxCell>
        <mxCell id="qWagboNVL4_WTNi-8dgY-47" value="1:N" style="text;html=1;align=center;verticalAlign=middle;resizable=0;points=[];autosize=1;strokeColor=none;fillColor=none;" parent="1" vertex="1">
          <mxGeometry x="-210" y="850" width="40" height="30" as="geometry" />
        </mxCell>
        <mxCell id="qWagboNVL4_WTNi-8dgY-48" value="1:N" style="text;html=1;align=center;verticalAlign=middle;resizable=0;points=[];autosize=1;strokeColor=none;fillColor=none;" parent="1" vertex="1">
          <mxGeometry x="337.5" y="760" width="40" height="30" as="geometry" />
        </mxCell>
        <mxCell id="qWagboNVL4_WTNi-8dgY-60" style="edgeStyle=orthogonalEdgeStyle;rounded=0;orthogonalLoop=1;jettySize=auto;html=1;exitX=0;exitY=0.5;exitDx=0;exitDy=0;entryX=1;entryY=0.5;entryDx=0;entryDy=0;" parent="1" source="qWagboNVL4_WTNi-8dgY-59" target="qWagboNVL4_WTNi-8dgY-14" edge="1">
          <mxGeometry relative="1" as="geometry" />
        </mxCell>
        <mxCell id="qWagboNVL4_WTNi-8dgY-59" value="formado por" style="shape=rhombus;perimeter=rhombusPerimeter;whiteSpace=wrap;html=1;align=center;" parent="1" vertex="1">
          <mxGeometry x="430" y="930" width="100" height="60" as="geometry" />
        </mxCell>
        <mxCell id="qWagboNVL4_WTNi-8dgY-61" value="1:N" style="text;html=1;align=center;verticalAlign=middle;resizable=0;points=[];autosize=1;strokeColor=none;fillColor=none;" parent="1" vertex="1">
          <mxGeometry x="337.5" y="960" width="40" height="30" as="geometry" />
        </mxCell>
        <mxCell id="qWagboNVL4_WTNi-8dgY-62" value="0:N" style="text;html=1;align=center;verticalAlign=middle;resizable=0;points=[];autosize=1;strokeColor=none;fillColor=none;" parent="1" vertex="1">
          <mxGeometry x="500" y="680" width="40" height="30" as="geometry" />
        </mxCell>
        <mxCell id="qWagboNVL4_WTNi-8dgY-63" value="N:M" style="text;html=1;align=center;verticalAlign=middle;resizable=0;points=[];autosize=1;strokeColor=none;fillColor=none;" parent="1" vertex="1">
          <mxGeometry x="455" y="988" width="50" height="30" as="geometry" />
        </mxCell>
        <mxCell id="qWagboNVL4_WTNi-8dgY-65" value="1:1" style="text;html=1;align=center;verticalAlign=middle;resizable=0;points=[];autosize=1;strokeColor=none;fillColor=none;" parent="1" vertex="1">
          <mxGeometry x="675" y="700" width="40" height="30" as="geometry" />
        </mxCell>
        <mxCell id="qWagboNVL4_WTNi-8dgY-66" value="0:N" style="text;html=1;align=center;verticalAlign=middle;resizable=0;points=[];autosize=1;strokeColor=none;fillColor=none;" parent="1" vertex="1">
          <mxGeometry x="480" y="648" width="40" height="30" as="geometry" />
        </mxCell>
        <mxCell id="qWagboNVL4_WTNi-8dgY-67" value="1:N" style="text;html=1;align=center;verticalAlign=middle;resizable=0;points=[];autosize=1;strokeColor=none;fillColor=none;" parent="1" vertex="1">
          <mxGeometry x="620" y="758" width="40" height="30" as="geometry" />
        </mxCell>
        <mxCell id="qWagboNVL4_WTNi-8dgY-72" value="IdServicios" style="ellipse;whiteSpace=wrap;html=1;align=center;fontStyle=4;" parent="1" vertex="1">
          <mxGeometry x="550" y="350" width="100" height="40" as="geometry" />
        </mxCell>
        <mxCell id="qWagboNVL4_WTNi-8dgY-83" value="nombre" style="ellipse;whiteSpace=wrap;html=1;align=center;" parent="1" vertex="1">
          <mxGeometry x="430" y="330" width="100" height="40" as="geometry" />
        </mxCell>
        <mxCell id="qWagboNVL4_WTNi-8dgY-85" value="idTipo" style="ellipse;whiteSpace=wrap;html=1;align=center;fontStyle=4;" parent="1" vertex="1">
          <mxGeometry x="337.5" y="1018" width="100" height="40" as="geometry" />
        </mxCell>
        <mxCell id="qWagboNVL4_WTNi-8dgY-86" value="tiempoEstResolucion" style="ellipse;whiteSpace=wrap;html=1;align=center;" parent="1" vertex="1">
          <mxGeometry x="217.5" y="1070" width="130" height="40" as="geometry" />
        </mxCell>
        <mxCell id="qWagboNVL4_WTNi-8dgY-90" value="tiempoMaximo" style="ellipse;whiteSpace=wrap;html=1;align=center;" parent="1" vertex="1">
          <mxGeometry x="20" y="980" width="100" height="40" as="geometry" />
        </mxCell>
        <mxCell id="qWagboNVL4_WTNi-8dgY-92" value="idHelpDesk" style="ellipse;whiteSpace=wrap;html=1;align=center;fontStyle=4;" parent="1" vertex="1">
          <mxGeometry x="640" y="800" width="100" height="40" as="geometry" />
        </mxCell>
        <mxCell id="qWagboNVL4_WTNi-8dgY-94" style="edgeStyle=orthogonalEdgeStyle;rounded=0;orthogonalLoop=1;jettySize=auto;html=1;exitX=0.25;exitY=1;exitDx=0;exitDy=0;entryX=0.63;entryY=0;entryDx=0;entryDy=0;entryPerimeter=0;" parent="1" source="nkca7lePZG1rZRtynT3X-4" target="qWagboNVL4_WTNi-8dgY-92" edge="1">
          <mxGeometry relative="1" as="geometry" />
        </mxCell>
      </root>
    </mxGraphModel>
  </diagram>
</mxfile>
